<?xml version="1.0" standalone="no"?><!DOCTYPE svg PUBLIC "-//W3C//DTD SVG 1.1//EN" "http://www.w3.org/Graphics/SVG/1.1/DTD/svg11.dtd"><svg t="1742201445567" class="icon" viewBox="0 0 1024 1024" version="1.1" xmlns="http://www.w3.org/2000/svg" p-id="4059" xmlns:xlink="http://www.w3.org/1999/xlink" width="200" height="200"><path d="M336.213333 1024v-164.864h162.688v-61.098667H336.256v-122.282666h76.373333c18.944 0 34.773333-6.4 47.530667-19.114667 12.714667-12.714667 19.072-28.586667 19.072-47.488V332.970667c0-18.944-6.357333-34.773333-19.072-47.488a64.469333 64.469333 0 0 0-47.488-19.114667H336.213333V151.765333h153.898667V90.624H336.256V0H163.754667v90.624H9.813333v61.141333h153.941334v114.602667H86.229333c-18.901333 0-34.730667 6.4-47.488 19.114667-12.714667 12.714667-19.072 28.586667-19.072 47.488v276.181333c0 18.944 6.357333 34.773333 19.072 47.488 12.757333 12.757333 28.586667 19.114667 47.488 19.114667h77.525334v122.282666H0v61.098667h163.754667V1024h172.501333z m451.968 0v-185.6l32.768 61.141333h130.986667c18.944 0 34.773333-6.4 47.488-19.114666 12.757333-12.714667 19.114667-28.586667 19.114667-47.488V621.226667c0-18.944-6.4-34.773333-19.114667-47.488a64.469333 64.469333 0 0 0-47.488-19.114667h-163.754667V397.354667h204.16V336.256h-204.16V179.029333h221.610667V117.888h-221.610667V0h-172.458666v117.888h-92.8v61.141333h92.8v157.226667h-80.810667v61.098667h80.810667v157.226666H512v61.141334h103.68V1024h172.501333zM298.026667 439.936H195.413333V343.893333c0-4.394667 1.621333-8.192 4.906667-11.477333a15.701333 15.701333 0 0 1 11.477333-4.906667H281.6c4.394667 0 8.192 1.621333 11.477333 4.906667a15.701333 15.701333 0 0 1 4.906667 11.477333v96.042667z m-16.384 174.677333H211.797333a15.701333 15.701333 0 0 1-11.477333-4.906666 15.701333 15.701333 0 0 1-4.906667-11.477334V502.186667h102.613334v96.042666a15.701333 15.701333 0 0 1-4.906667 11.477334 15.701333 15.701333 0 0 1-11.477333 4.906666z m506.538666 1.109334h41.514667c4.352 0 8.192 1.621333 11.434667 4.906666a15.701333 15.701333 0 0 1 4.906666 11.434667v189.994667a15.701333 15.701333 0 0 1-4.906666 11.434666 15.701333 15.701333 0 0 1-11.434667 4.906667h-41.514667v-222.72z" fill="#3D7DFD" p-id="4060"></path></svg>